<svg width="35" height="35" viewBox="0 0 35 35" fill="none" xmlns="http://www.w3.org/2000/svg">
<path fill-rule="evenodd" clip-rule="evenodd" d="M5.48876 30.2135C7.62668 32.3485 11.0625 32.3485 17.9371 32.3485C24.8117 32.3485 28.249 32.3485 30.384 30.2121C32.5204 28.0785 32.5204 24.6398 32.5204 17.7652C32.5204 10.8906 32.5204 7.45334 30.384 5.31688C28.2504 3.18188 24.8117 3.18188 17.9371 3.18188C11.0625 3.18188 7.62522 3.18188 5.48876 5.31688C3.35376 7.4548 3.35376 10.8906 3.35376 17.7652C3.35376 24.6398 3.35376 28.0785 5.48876 30.2135ZM27.7808 23.5986C27.7808 23.8886 27.6656 24.1668 27.4605 24.3719C27.2554 24.5771 26.9772 24.6923 26.6871 24.6923H9.18709C8.89701 24.6923 8.61881 24.5771 8.4137 24.3719C8.20858 24.1668 8.09334 23.8886 8.09334 23.5986C8.09334 23.3085 8.20858 23.0303 8.4137 22.8252C8.61881 22.62 8.89701 22.5048 9.18709 22.5048H26.6871C26.9772 22.5048 27.2554 22.62 27.4605 22.8252C27.6656 23.0303 27.7808 23.3085 27.7808 23.5986ZM26.6871 18.859C26.9772 18.859 27.2554 18.7437 27.4605 18.5386C27.6656 18.3335 27.7808 18.0553 27.7808 17.7652C27.7808 17.4751 27.6656 17.1969 27.4605 16.9918C27.2554 16.7867 26.9772 16.6715 26.6871 16.6715H9.18709C8.89701 16.6715 8.61881 16.7867 8.4137 16.9918C8.20858 17.1969 8.09334 17.4751 8.09334 17.7652C8.09334 18.0553 8.20858 18.3335 8.4137 18.5386C8.61881 18.7437 8.89701 18.859 9.18709 18.859H26.6871ZM27.7808 11.9319C27.7808 12.222 27.6656 12.5002 27.4605 12.7053C27.2554 12.9104 26.9772 13.0256 26.6871 13.0256H9.18709C8.89701 13.0256 8.61881 12.9104 8.4137 12.7053C8.20858 12.5002 8.09334 12.222 8.09334 11.9319C8.09334 11.6418 8.20858 11.3636 8.4137 11.1585C8.61881 10.9534 8.89701 10.8381 9.18709 10.8381H26.6871C26.9772 10.8381 27.2554 10.9534 27.4605 11.1585C27.6656 11.3636 27.7808 11.6418 27.7808 11.9319Z" fill="#FF4500"/>
</svg>
