<svg width="25" height="25" viewBox="0 0 25 25" fill="none" xmlns="http://www.w3.org/2000/svg">
<path d="M23.6 1.37375C22.6833 0.457084 21.5804 -0.000832198 20.2913 1.13533e-06H4.6825C3.3925 1.13533e-06 2.28958 0.457918 1.37375 1.37375C0.457084 2.29042 -0.000832198 3.39333 1.13533e-06 4.6825V20.2913C1.13533e-06 21.5812 0.457918 22.6842 1.37375 23.6C2.29042 24.5167 3.39333 24.9746 4.6825 24.9738H8.325C8.5625 24.9738 8.74125 24.9654 8.86125 24.9487C9.00101 24.9211 9.12714 24.8466 9.21875 24.7375C9.33792 24.6125 9.3975 24.4312 9.3975 24.1937L9.38875 23.0875C9.38375 22.3825 9.38125 21.8242 9.38125 21.4125L9.00625 21.4775C8.76875 21.5208 8.46834 21.54 8.105 21.535C7.72588 21.5278 7.34797 21.4897 6.975 21.4212C6.57762 21.3492 6.20363 21.1819 5.885 20.9338C5.55056 20.6808 5.30115 20.332 5.17 19.9338L5.0075 19.5588C4.87001 19.2632 4.69798 18.985 4.495 18.73C4.26167 18.4267 4.02583 18.2208 3.7875 18.1125L3.675 18.0313C3.59688 17.9747 3.52557 17.9092 3.4625 17.8363C3.40226 17.7685 3.35292 17.6917 3.31625 17.6088C3.28375 17.5321 3.31083 17.4696 3.3975 17.4213C3.48417 17.3713 3.64167 17.3467 3.87 17.3475L4.195 17.3975C4.41167 17.44 4.67958 17.5696 4.99875 17.7863C5.32133 18.0062 5.59079 18.2953 5.7875 18.6325C6.0375 19.0758 6.33834 19.4146 6.69 19.6488C7.0425 19.8821 7.3975 19.9988 7.755 19.9988C8.1125 19.9988 8.42167 19.9717 8.6825 19.9175C8.93511 19.8651 9.18059 19.7829 9.41375 19.6725C9.51125 18.9467 9.77667 18.3883 10.21 17.9975C9.64803 17.942 9.09104 17.8442 8.54375 17.705C8.00968 17.5585 7.49609 17.3456 7.015 17.0713C6.51156 16.7972 6.06688 16.4268 5.70625 15.9813C5.35958 15.5479 5.075 14.9792 4.8525 14.275C4.63083 13.57 4.52 12.7567 4.52 11.835C4.52 10.5242 4.94792 9.4075 5.80375 8.485C5.40375 7.49917 5.44167 6.39417 5.9175 5.17C6.2325 5.07167 6.69875 5.14458 7.31625 5.38875C7.93375 5.63292 8.38625 5.84125 8.67375 6.01375C8.96125 6.18875 9.19167 6.33542 9.365 6.45375C10.3811 6.17043 11.4314 6.02826 12.4863 6.03125C13.5596 6.03125 14.6004 6.17208 15.6088 6.45375L16.2263 6.06375C16.7012 5.77859 17.2022 5.53918 17.7225 5.34875C18.2967 5.13208 18.7358 5.0725 19.04 5.17C19.5275 6.395 19.5704 7.50042 19.1688 8.48625C20.0254 9.40708 20.4538 10.5238 20.4538 11.8363C20.4538 12.7579 20.3425 13.5733 20.12 14.2825C19.8983 14.9925 19.6112 15.5617 19.2588 15.99C18.8907 16.4288 18.4444 16.7954 17.9425 17.0713C17.4175 17.3638 16.9079 17.575 16.4137 17.705C15.8665 17.8446 15.3095 17.9428 14.7475 17.9988C15.31 18.4863 15.5917 19.2554 15.5925 20.3063V24.1937C15.5925 24.3771 15.6196 24.5258 15.6738 24.64C15.699 24.6948 15.7351 24.744 15.7797 24.7845C15.8244 24.8251 15.8768 24.8563 15.9338 24.8762C16.0529 24.9196 16.1588 24.9463 16.2513 24.9562C16.3438 24.9679 16.4763 24.9733 16.6488 24.9725H20.2913C21.5812 24.9725 22.6842 24.5146 23.6 23.5987C24.5158 22.6829 24.9737 21.58 24.9738 20.29V4.6825C24.9738 3.3925 24.5167 2.28958 23.6 1.37375Z" fill="#EDEDED"/>
</svg>
