<svg width="40" height="40" viewBox="0 0 40 40" fill="none" xmlns="http://www.w3.org/2000/svg">
<path d="M30.625 0H9.375C4.19733 0 0 4.19733 0 9.375V30.625C0 35.8027 4.19733 40 9.375 40H30.625C35.8027 40 40 35.8027 40 30.625V9.375C40 4.19733 35.8027 0 30.625 0Z" fill="#764ABC"/>
<path d="M26.028 25.8749C27.1813 25.7555 28.0561 24.7613 28.0163 23.5683C27.9766 22.3753 26.9824 21.4209 25.7894 21.4209H25.7099C24.477 21.4606 23.5227 22.4945 23.5624 23.7274C23.6022 24.3239 23.8408 24.8408 24.1986 25.1988C22.8466 27.8631 20.7788 29.8117 17.6769 31.4422C15.5692 32.5556 13.382 32.9533 11.1949 32.675C9.40533 32.4364 8.01361 31.6409 7.13861 30.3288C5.86611 28.3802 5.74689 26.2725 6.82048 24.1649C7.57611 22.6536 8.76908 21.5402 9.5247 20.9834C9.36564 20.4666 9.12704 19.5916 9.00767 18.9553C3.24158 23.1309 3.83798 28.7778 5.58767 31.4422C6.90017 33.4305 9.56439 34.6633 12.5072 34.6633C13.3025 34.6633 14.0978 34.5838 14.8931 34.3849C19.9835 33.3908 23.8408 30.3684 26.028 25.8749Z" fill="white"/>
<path d="M33.0269 20.9436C30.0047 17.4043 25.5508 15.4558 20.4607 15.4558H19.8244C19.4664 14.7399 18.7108 14.2627 17.8758 14.2627H17.7963C16.5635 14.3025 15.6091 15.3364 15.6488 16.5693C15.6886 17.7622 16.6827 18.7166 17.8758 18.7166H17.9553C18.8302 18.6769 19.5858 18.1202 19.9039 17.3646H20.6197C23.6419 17.3646 26.5052 18.2394 29.09 19.9494C31.0783 21.2618 32.51 22.9718 33.3053 25.0396C33.9814 26.7097 33.9416 28.3402 33.2258 29.7321C32.1124 31.8397 30.2433 32.993 27.7777 32.993C26.1871 32.993 24.676 32.5158 23.8805 32.1579C23.4432 32.5555 22.6478 33.1918 22.0911 33.5894C23.801 34.3847 25.5508 34.8222 27.221 34.8222C31.0386 34.8222 33.8621 32.7146 34.9358 30.6069C36.0891 28.3005 36.0096 24.3238 33.0269 20.9436Z" fill="white"/>
<path d="M12.8253 26.5509C12.8652 27.7439 13.8592 28.6983 15.0524 28.6983H15.1319C16.3646 28.6584 17.3191 27.6245 17.2792 26.3917C17.2395 25.1987 16.2453 24.2444 15.0524 24.2444H14.9727C14.8933 24.2444 14.7739 24.2444 14.6945 24.2842C13.0639 21.58 12.388 18.6372 12.6266 15.4559C12.7856 13.07 13.581 11.002 14.9728 9.29187C16.126 7.82062 18.353 7.10484 19.8641 7.065C24.0794 6.98547 25.8689 12.2347 25.9881 14.3425C26.5052 14.4617 27.38 14.74 27.9766 14.9389C27.4994 8.49688 23.5227 5.15625 19.705 5.15625C16.126 5.15625 12.8253 7.74109 11.513 11.5587C9.68377 16.6489 10.8767 21.5402 13.1036 25.3977C12.9049 25.6759 12.7855 26.1134 12.8253 26.5509Z" fill="white"/>
</svg>
